Fly_normalized_Motion_pl07
version=1
nRows=10
nColumns=43
inDegrees=yes
endheader
time		pelvis_tilt		pelvis_list		pelvis_rotation		pelvis_tx		pelvis_ty		pelvis_tz		hip_flexion_r		hip_adduction_r		hip_rotation_r		knee_angle_r		ankle_angle_r		subtalar_angle_r		mtp_angle_r		hip_flexion_l		hip_adduction_l		hip_rotation_l		knee_angle_l		ankle_angle_l		subtalar_angle_l		mtp_angle_l		lumbar_extension		lumbar_bending		lumbar_rotation		neck_flexion		neck_lateral_bending		neck_rotation		arm_flex_r		arm_add_r		arm_rot_r		elbow_flex_r		pro_sup_r		wrist_flex_r		wrist_dev_r		hand_finger_flex_r		arm_flex_l		arm_add_l		arm_rot_l		elbow_flex_l		pro_sup_l		wrist_flex_l		wrist_dev_l		hand_finger_flex_l		
0.441667		1.393588		0.995900		86.667696		0.027269		1.499484		0.946070		38.662883		-0.678771		-4.653092		-49.894877		-15.952208		0.407822		-2.300113		40.981625		-8.683164		-7.443950		-39.947935		-29.229775		6.667760		16.787848		-43.960035		-1.909076		4.506404		8.358993		3.027883		-3.683302		-11.940143		-36.647568		-13.413653		71.829967		108.688340		0.485518		-12.643562		13.551230		-10.313083		-33.291519		1.886016		40.322703		112.162535		-15.642904		-4.096266		-3.466593		
0.445859		1.396959		1.329962		86.605395		0.026687		1.487924		0.935109		37.862315		-0.727195		-4.894044		-48.531832		-15.766031		0.105116		-3.596361		40.049825		-8.727094		-7.772857		-39.207123		-29.536722		6.806509		16.586231		-43.529521		-1.912471		4.459536		6.980441		3.075090		-3.635153		-14.979650		-36.246055		-14.382685		72.205409		108.740902		0.826026		-12.842395		12.375462		-13.211574		-32.864717		0.861429		40.367554		112.081538		-15.839072		-4.256675		-4.448095		
0.450051		1.407479		1.724637		86.605199		0.025519		1.476352		0.923779		36.923298		-0.883367		-5.264816		-47.119818		-15.718561		-0.098097		-3.719800		39.009636		-8.685931		-8.065835		-38.434021		-29.810071		6.808241		16.534378		-43.127516		-1.823368		4.411260		5.572738		3.111422		-3.569821		-18.059252		-35.921965		-15.196498		72.539473		108.504030		0.543685		-13.092412		12.167124		-15.995020		-32.321712		0.036025		40.301392		111.655605		-16.530139		-4.455460		-4.776613		
0.454242		1.422612		2.108885		86.631308		0.023968		1.464608		0.912257		35.957020		-1.087886		-5.705405		-45.690510		-15.705005		-0.158334		-3.859931		37.962376		-8.600522		-8.335696		-37.649327		-30.032729		6.744182		16.516430		-42.699317		-1.670727		4.377162		4.162868		3.095570		-3.514442		-21.180193		-35.609869		-16.070934		72.891863		108.285071		0.290592		-13.315529		11.926554		-18.713262		-31.679797		-0.791714		40.239880		111.265233		-17.128834		-4.660881		-5.112952		
0.458434		1.432625		2.468542		86.611083		0.022540		1.452580		0.900716		35.017629		-1.270753		-6.153234		-44.262633		-15.759919		-0.094262		-4.015455		36.938602		-8.540610		-8.634351		-36.869835		-30.263339		6.629418		16.525852		-42.229512		-1.551220		4.360494		2.746753		3.061533		-3.475672		-24.310651		-35.175282		-17.008048		73.325888		108.052072		0.060046		-13.563418		11.652089		-21.440152		-31.001790		-1.668943		40.209978		110.887250		-17.693873		-4.854439		-5.476553		
0.462626		1.407364		2.706755		86.601244		0.021355		1.440188		0.889354		34.226994		-1.440073		-6.548259		-42.824097		-15.946302		0.034187		-4.177937		36.014482		-8.477240		-8.993588		-36.022926		-30.494965		6.518263		16.549765		-41.635682		-1.474880		4.368228		1.361887		3.012057		-3.414188		-27.414930		-34.736796		-17.884523		73.727114		107.847027		-0.100604		-13.811029		11.395032		-24.125418		-30.371375		-2.502867		40.318445		110.552842		-18.197287		-5.052476		-5.826614		
0.466818		1.372102		2.909506		86.534313		0.020700		1.427452		0.878138		33.499229		-1.540085		-6.898110		-41.393221		-16.277951		0.182488		-4.339309		35.131521		-8.478638		-9.444842		-35.144201		-30.771142		6.399748		16.578202		-41.004951		-1.481008		4.378573		-0.019118		2.957759		-3.358636		-30.442707		-34.100399		-18.787466		74.202656		107.625576		-0.256177		-14.106701		11.122035		-26.878964		-29.765131		-3.441487		40.533684		110.190451		-18.705083		-5.229927		-6.181464		
0.471010		1.329601		3.071276		86.468616		0.020324		1.414452		0.867000		32.820488		-1.608913		-7.226611		-39.949942		-16.706530		0.314310		-4.494932		34.263500		-8.503658		-9.982291		-34.189527		-31.063908		6.271928		16.616497		-40.338563		-1.511311		4.383563		-1.361322		2.880460		-3.294944		-33.418749		-33.383364		-19.666584		74.679035		107.408171		-0.385877		-14.419676		10.822873		-29.659985		-29.167263		-4.446431		40.885196		109.821758		-19.170569		-5.427319		-6.530769		
0.475202		1.294248		3.216616		86.410633		0.020076		1.401240		0.855893		32.146929		-1.659437		-7.562653		-38.484450		-17.186768		0.429096		-4.634530		33.395828		-8.549410		-10.603658		-33.152647		-31.357468		6.112156		16.657715		-39.654396		-1.536297		4.391292		-2.700966		2.772358		-3.203971		-36.333225		-32.599028		-20.516571		75.143220		107.182367		-0.505639		-14.747196		10.505867		-32.443801		-28.552492		-5.498212		41.318402		109.453950		-19.597051		-5.657279		-6.869360		
0.479394		1.281135		3.372357		86.342829		0.019802		1.387879		0.844693		31.439407		-1.692428		-7.928186		-37.000243		-17.663153		0.571458		-4.760814		32.473840		-8.622260		-11.327639		-32.029483		-31.616422		5.889645		16.716631		-38.977728		-1.533415		4.402257		-4.030300		2.629353		-3.095474		-39.186333		-31.752536		-21.356454		75.612508		106.934985		-0.621264		-15.087614		10.145597		-35.198149		-27.868852		-6.598993		41.791612		109.104018		-19.942310		-5.932623		-7.215093		
